<?xml version="1.0" encoding="UTF-8"?>
<svg version="1.1" xmlns="http://www.w3.org/2000/svg" width="64" height="64">
<path d="M0 0 C5.445 0.495 5.445 0.495 11 1 C11.75 4.25 11.75 4.25 12 8 C10.0625 10.4375 10.0625 10.4375 8 12 C8.309375 12.53625 8.61875 13.0725 8.9375 13.625 C10.17827439 16.3984957 10.5909675 19.00042837 11 22 C11.99 22.33 12.98 22.66 14 23 C13.7215625 24.3921875 13.7215625 24.3921875 13.4375 25.8125 C12.75876119 29.01343771 12.75876119 29.01343771 14 32 C13.01 32.495 13.01 32.495 12 33 C12.0721875 33.60585938 12.144375 34.21171875 12.21875 34.8359375 C12.89383253 40.93043257 13.08758725 46.86889264 13 53 C10.03 53.66 7.06 54.32 4 55 C4 57.97 4 60.94 4 64 C0.37 64 -3.26 64 -7 64 C-6.67 63.01 -6.34 62.02 -6 61 C-3.9375 60.3125 -3.9375 60.3125 -2 60 C-2.40311361 57.48313064 -2.40311361 57.48313064 -4 55 C-6.66525288 53.91758097 -9.1407915 53.50727893 -12 53 C-11.91621094 52.11957031 -11.83242188 51.23914062 -11.74609375 50.33203125 C-11.64425781 49.17058594 -11.54242187 48.00914063 -11.4375 46.8125 C-11.33308594 45.66394531 -11.22867187 44.51539063 -11.12109375 43.33203125 C-10.86731362 40.09623312 -10.86731362 40.09623312 -11.5625 37.375 C-12.09302404 34.49501233 -11.57821164 32.90960719 -10.5625 30.1875 C-10.27503906 29.39730469 -9.98757812 28.60710938 -9.69140625 27.79296875 C-9.46324219 27.20128906 -9.23507813 26.60960938 -9 26 C-12.01887244 22.51668565 -14.56909529 21.20842856 -19 20 C-18.25 13.25 -18.25 13.25 -16 11 C-12.375 11.375 -12.375 11.375 -9 12 C-8.690625 12.94875 -8.38125 13.8975 -8.0625 14.875 C-7.12605258 17.86080408 -7.12605258 17.86080408 -6 20 C-4.05681914 17.7959895 -2.32208762 15.63351324 -1 13 C-1.84164327 9.97503122 -1.84164327 9.97503122 -3 7 C-2.3106231 4.42005916 -1.24299163 2.39036852 0 0 Z " fill="#932024" transform="translate(34,0)"/>
<path d="M0 0 C2.86724686 0.57344937 3.8614515 0.8614515 6 3 C5.625 5.125 5.625 5.125 5 7 C3.02 7 1.04 7 -1 7 C-1.625 5.1875 -1.625 5.1875 -2 3 C-1.34 2.01 -0.68 1.02 0 0 Z " fill="#AE645D" transform="translate(19,12)"/>
<path d="M0 0 C1.65 0 3.3 0 5 0 C5.33 1.32 5.66 2.64 6 4 C3.50907189 5.24546405 2.58919267 4.7767578 0 4 C0.33 3.34 0.66 2.68 1 2 C0.67 1.34 0.34 0.68 0 0 Z " fill="#A34946" transform="translate(19,14)"/>
</svg>
